M48
;DRILL file {KiCad 4.0.7} date 09/22/19 17:52:59
;FORMAT={2:4/ absolute / inch / suppress leading zeros}
FMAT,2
INCH,TZ
T1C0.016
T2C0.031
T3C0.039
%
G90
G05
M72
T1
X51000Y-26500
X51000Y-28000
X51250Y-27500
X51250Y-28250
X51500Y-25500
X51500Y-28000
X51750Y-24500
X51750Y-28250
X52000Y-23500
X52000Y-28000
X52250Y-22500
X52250Y-28250
X52500Y-21500
X52500Y-28000
X52750Y-20500
X52750Y-28250
X53000Y-19500
X53000Y-28000
X53250Y-18500
X53250Y-28250
X53500Y-17500
X53500Y-28000
X53750Y-27000
X53750Y-28250
X54000Y-26000
X54000Y-28000
X54250Y-25000
X54250Y-28250
X54500Y-24000
X54500Y-28000
X54750Y-19000
X54750Y-28250
X55000Y-20000
X55000Y-28000
X55500Y-22000
X55500Y-28000
X58500Y-16000
X58500Y-23000
X58500Y-28500
X60000Y-15500
X60000Y-28000
X61000Y-33750
X61750Y-32000
X61750Y-33500
X62000Y-31250
X62250Y-21500
X62250Y-28000
X62500Y-16750
X62500Y-28250
X62750Y-17500
X62750Y-28000
X63000Y-18500
X63000Y-28250
X64000Y-15500
X64500Y-15750
X64500Y-18500
X65500Y-34000
X65750Y-29750
X65750Y-32500
X66000Y-29500
X66000Y-33000
X66000Y-34000
X66250Y-29750
X66250Y-33250
X66250Y-34250
X68500Y-30750
X69500Y-35750
T2
X48750Y-15250
X48750Y-17219
X50250Y-15250
X50250Y-16250
X50250Y-17250
X50250Y-18250
X50250Y-19250
X50250Y-20250
X50250Y-21250
X50250Y-22250
X50250Y-23250
X50250Y-24250
X50250Y-25250
X50250Y-26250
X50250Y-27250
X50250Y-28250
X56250Y-15250
X56250Y-16250
X56250Y-17250
X56250Y-18250
X56250Y-19250
X56250Y-20250
X56250Y-21250
X56250Y-22250
X56250Y-23250
X56250Y-24250
X56250Y-25250
X56250Y-26250
X56250Y-27250
X56250Y-28250
X57750Y-15250
X57750Y-17219
X59250Y-15250
X59250Y-16250
X59250Y-17250
X59250Y-18250
X59250Y-19250
X59250Y-20250
X59250Y-21250
X59250Y-22250
X59250Y-23250
X59250Y-24250
X59250Y-25250
X59250Y-26250
X59250Y-27250
X59250Y-28250
X59250Y-30000
X59250Y-33000
X60250Y-30000
X60250Y-33000
X61250Y-30000
X61250Y-33000
X62250Y-30000
X62250Y-33000
X63250Y-30000
X63250Y-33000
X64250Y-30000
X64250Y-33000
X65250Y-15250
X65250Y-16250
X65250Y-17250
X65250Y-18250
X65250Y-19250
X65250Y-20250
X65250Y-21250
X65250Y-22250
X65250Y-23250
X65250Y-24250
X65250Y-25250
X65250Y-26250
X65250Y-27250
X65250Y-28250
X65250Y-30000
X65250Y-33000
X66750Y-30500
X66750Y-32469
X68500Y-29500
X68500Y-33500
T3
X66750Y-15250
X66750Y-16250
X66750Y-17250
X66750Y-18250
X66750Y-19250
X66750Y-20250
X67750Y-15250
X67750Y-16250
X67750Y-17250
X67750Y-18250
X67750Y-19250
X67750Y-20250
T0
M30
