G04 #@! TF.FileFunction,Copper,L1,Top,Signal*
%FSLAX46Y46*%
G04 Gerber Fmt 4.6, Leading zero omitted, Abs format (unit mm)*
G04 Created by KiCad (PCBNEW 4.0.7) date 09/22/19 17:52:56*
%MOMM*%
%LPD*%
G01*
G04 APERTURE LIST*
%ADD10C,0.100000*%
%ADD11R,1.000000X6.500000*%
%ADD12R,1.000000X4.000000*%
%ADD13C,1.600000*%
%ADD14R,1.700000X1.700000*%
%ADD15O,1.700000X1.700000*%
%ADD16O,1.600000X1.600000*%
%ADD17R,1.600000X1.600000*%
%ADD18C,0.600000*%
%ADD19C,0.250000*%
G04 APERTURE END LIST*
D10*
D11*
X123190000Y-95250000D03*
X125730000Y-95250000D03*
X128270000Y-95250000D03*
X130810000Y-95250000D03*
X133350000Y-95250000D03*
X135890000Y-95250000D03*
X138430000Y-95250000D03*
X140970000Y-95250000D03*
X143510000Y-95250000D03*
X146050000Y-95250000D03*
X148590000Y-95250000D03*
X151130000Y-95250000D03*
X153670000Y-95250000D03*
X156210000Y-95250000D03*
X161290000Y-95250000D03*
X158750000Y-95250000D03*
X163830000Y-95250000D03*
X166370000Y-95250000D03*
X168910000Y-95250000D03*
X171450000Y-95250000D03*
X173990000Y-95250000D03*
D12*
X176530000Y-93980000D03*
D13*
X146685000Y-38735000D03*
X146685000Y-43735000D03*
X123825000Y-38735000D03*
X123825000Y-43735000D03*
X169545000Y-77470000D03*
X169545000Y-82470000D03*
D14*
X172085000Y-38735000D03*
D15*
X172085000Y-41275000D03*
X172085000Y-43815000D03*
D14*
X169545000Y-38735000D03*
D15*
X169545000Y-41275000D03*
X169545000Y-43815000D03*
D14*
X172085000Y-46355000D03*
D15*
X172085000Y-48895000D03*
X172085000Y-51435000D03*
D14*
X169545000Y-46355000D03*
D15*
X169545000Y-48895000D03*
X169545000Y-51435000D03*
D13*
X173990000Y-85090000D03*
D16*
X173990000Y-74930000D03*
D17*
X165735000Y-38735000D03*
D16*
X150495000Y-71755000D03*
X165735000Y-41275000D03*
X150495000Y-69215000D03*
X165735000Y-43815000D03*
X150495000Y-66675000D03*
X165735000Y-46355000D03*
X150495000Y-64135000D03*
X165735000Y-48895000D03*
X150495000Y-61595000D03*
X165735000Y-51435000D03*
X150495000Y-59055000D03*
X165735000Y-53975000D03*
X150495000Y-56515000D03*
X165735000Y-56515000D03*
X150495000Y-53975000D03*
X165735000Y-59055000D03*
X150495000Y-51435000D03*
X165735000Y-61595000D03*
X150495000Y-48895000D03*
X165735000Y-64135000D03*
X150495000Y-46355000D03*
X165735000Y-66675000D03*
X150495000Y-43815000D03*
X165735000Y-69215000D03*
X150495000Y-41275000D03*
X165735000Y-71755000D03*
X150495000Y-38735000D03*
D17*
X142875000Y-38735000D03*
D16*
X127635000Y-71755000D03*
X142875000Y-41275000D03*
X127635000Y-69215000D03*
X142875000Y-43815000D03*
X127635000Y-66675000D03*
X142875000Y-46355000D03*
X127635000Y-64135000D03*
X142875000Y-48895000D03*
X127635000Y-61595000D03*
X142875000Y-51435000D03*
X127635000Y-59055000D03*
X142875000Y-53975000D03*
X127635000Y-56515000D03*
X142875000Y-56515000D03*
X127635000Y-53975000D03*
X142875000Y-59055000D03*
X127635000Y-51435000D03*
X142875000Y-61595000D03*
X127635000Y-48895000D03*
X142875000Y-64135000D03*
X127635000Y-46355000D03*
X142875000Y-66675000D03*
X127635000Y-43815000D03*
X142875000Y-69215000D03*
X127635000Y-41275000D03*
X142875000Y-71755000D03*
X127635000Y-38735000D03*
D17*
X165735000Y-83820000D03*
D16*
X150495000Y-76200000D03*
X163195000Y-83820000D03*
X153035000Y-76200000D03*
X160655000Y-83820000D03*
X155575000Y-76200000D03*
X158115000Y-83820000D03*
X158115000Y-76200000D03*
X155575000Y-83820000D03*
X160655000Y-76200000D03*
X153035000Y-83820000D03*
X163195000Y-76200000D03*
X150495000Y-83820000D03*
X165735000Y-76200000D03*
D18*
X154940000Y-85725000D03*
X173990000Y-78105000D03*
X156845000Y-85090000D03*
X156845000Y-81280000D03*
X167005000Y-75565000D03*
X158750000Y-71755000D03*
X166370000Y-86360000D03*
X167005000Y-82550000D03*
X158750000Y-42545000D03*
X167640000Y-74930000D03*
X159385000Y-71120000D03*
X159385000Y-44450000D03*
X167640000Y-86360000D03*
X167640000Y-83820000D03*
X160020000Y-71755000D03*
X168275000Y-75565000D03*
X168275000Y-86995000D03*
X168275000Y-84455000D03*
X160020000Y-46990000D03*
X176530000Y-90805000D03*
X129540000Y-67310000D03*
X129540000Y-71120000D03*
X130175000Y-69850000D03*
X130175000Y-71755000D03*
X130810000Y-64770000D03*
X130810000Y-71120000D03*
X131445000Y-62230000D03*
X131445000Y-71755000D03*
X132080000Y-59690000D03*
X132080000Y-71120000D03*
X132715000Y-71755000D03*
X132715000Y-57150000D03*
X133350000Y-71120000D03*
X133350000Y-54610000D03*
X133985000Y-52070000D03*
X133985000Y-71755000D03*
X134620000Y-71120000D03*
X134620000Y-49530000D03*
X135255000Y-46990000D03*
X135255000Y-71755000D03*
X135890000Y-71120000D03*
X135890000Y-44450000D03*
X136525000Y-71755000D03*
X136525000Y-68580000D03*
X137795000Y-63500000D03*
X137795000Y-71755000D03*
X137160000Y-71120000D03*
X137160000Y-66040000D03*
X138430000Y-71120000D03*
X138430000Y-60960000D03*
X139065000Y-71755000D03*
X139065000Y-48260000D03*
X139700000Y-71120000D03*
X139700000Y-50800000D03*
X140970000Y-71120000D03*
X140970000Y-55880000D03*
X148590000Y-40640000D03*
X152400000Y-39370000D03*
X162560000Y-39370000D03*
X163830000Y-46990000D03*
X163830000Y-40005000D03*
X152400000Y-71120000D03*
X158115000Y-54610000D03*
X158115000Y-71120000D03*
X148590000Y-72390000D03*
X148590000Y-58420000D03*
X157480000Y-79375000D03*
D19*
X163195000Y-83820000D02*
X163195000Y-84455000D01*
X163195000Y-84455000D02*
X161925000Y-85725000D01*
X161925000Y-85725000D02*
X154940000Y-85725000D01*
X160655000Y-76200000D02*
X160655000Y-76835000D01*
X160655000Y-76835000D02*
X161290000Y-77470000D01*
X173355000Y-78740000D02*
X173990000Y-78105000D01*
X168275000Y-78740000D02*
X173355000Y-78740000D01*
X167005000Y-77470000D02*
X168275000Y-78740000D01*
X161290000Y-77470000D02*
X167005000Y-77470000D01*
X156845000Y-85090000D02*
X156845000Y-83185000D01*
X156845000Y-83185000D02*
X156845000Y-81280000D01*
X166370000Y-74295000D02*
X167005000Y-74930000D01*
X167005000Y-74930000D02*
X167005000Y-75565000D01*
X166370000Y-74295000D02*
X160020000Y-74295000D01*
X160020000Y-74295000D02*
X158750000Y-73025000D01*
X158750000Y-73025000D02*
X158750000Y-71755000D01*
X166370000Y-86360000D02*
X167005000Y-85725000D01*
X167005000Y-85725000D02*
X167005000Y-82550000D01*
X142875000Y-41275000D02*
X147955000Y-41275000D01*
X147955000Y-41275000D02*
X149225000Y-42545000D01*
X164465000Y-42545000D02*
X165735000Y-41275000D01*
X149225000Y-42545000D02*
X158750000Y-42545000D01*
X158750000Y-42545000D02*
X164465000Y-42545000D01*
X160655000Y-73660000D02*
X159385000Y-72390000D01*
X159385000Y-72390000D02*
X159385000Y-71120000D01*
X159385000Y-44450000D02*
X158750000Y-43815000D01*
X150495000Y-43815000D02*
X158750000Y-43815000D01*
X167005000Y-73660000D02*
X163195000Y-73660000D01*
X167640000Y-74295000D02*
X167005000Y-73660000D01*
X163195000Y-73660000D02*
X160655000Y-73660000D01*
X167640000Y-74295000D02*
X167640000Y-74930000D01*
X167640000Y-86360000D02*
X167640000Y-83820000D01*
X142875000Y-42545000D02*
X147955000Y-42545000D01*
X147955000Y-42545000D02*
X149225000Y-43815000D01*
X149225000Y-43815000D02*
X150495000Y-43815000D01*
X127635000Y-43815000D02*
X128905000Y-42545000D01*
X128905000Y-42545000D02*
X142875000Y-42545000D01*
X168275000Y-73660000D02*
X167640000Y-73025000D01*
X167640000Y-73025000D02*
X161290000Y-73025000D01*
X161290000Y-73025000D02*
X160020000Y-71755000D01*
X168275000Y-85090000D02*
X168275000Y-84455000D01*
X168275000Y-86995000D02*
X168275000Y-85090000D01*
X168275000Y-75565000D02*
X168275000Y-73660000D01*
X159385000Y-46355000D02*
X150495000Y-46355000D01*
X160020000Y-46990000D02*
X159385000Y-46355000D01*
X127635000Y-46355000D02*
X128905000Y-45085000D01*
X149225000Y-46355000D02*
X150495000Y-46355000D01*
X148590000Y-45720000D02*
X149225000Y-46355000D01*
X145415000Y-45720000D02*
X148590000Y-45720000D01*
X144780000Y-45085000D02*
X145415000Y-45720000D01*
X128905000Y-45085000D02*
X144780000Y-45085000D01*
X175895000Y-46990000D02*
X175895000Y-38100000D01*
X175895000Y-38100000D02*
X175260000Y-37465000D01*
X176530000Y-78105000D02*
X176530000Y-73025000D01*
X175260000Y-46355000D02*
X172085000Y-46355000D01*
X175895000Y-46990000D02*
X175260000Y-46355000D01*
X175895000Y-72390000D02*
X175895000Y-46990000D01*
X176530000Y-73025000D02*
X175895000Y-72390000D01*
X169545000Y-77470000D02*
X175895000Y-77470000D01*
X176530000Y-78105000D02*
X176530000Y-85725000D01*
X175895000Y-77470000D02*
X176530000Y-78105000D01*
X165735000Y-76200000D02*
X168275000Y-76200000D01*
X168275000Y-76200000D02*
X169545000Y-77470000D01*
X128905000Y-37465000D02*
X125095000Y-37465000D01*
X125095000Y-37465000D02*
X123825000Y-38735000D01*
X146685000Y-38735000D02*
X146685000Y-38100000D01*
X146685000Y-38100000D02*
X147320000Y-37465000D01*
X170815000Y-38735000D02*
X170815000Y-38100000D01*
X170815000Y-38100000D02*
X171450000Y-37465000D01*
X128905000Y-37465000D02*
X147320000Y-37465000D01*
X147320000Y-37465000D02*
X171450000Y-37465000D01*
X171450000Y-37465000D02*
X175260000Y-37465000D01*
X146685000Y-38735000D02*
X150495000Y-38735000D01*
X123825000Y-38735000D02*
X127635000Y-38735000D01*
X169545000Y-46355000D02*
X172085000Y-46355000D01*
X169545000Y-38735000D02*
X170815000Y-38735000D01*
X170815000Y-38735000D02*
X172085000Y-38735000D01*
X173990000Y-85090000D02*
X175895000Y-85090000D01*
X175895000Y-85090000D02*
X176530000Y-85725000D01*
X176530000Y-85725000D02*
X176530000Y-90805000D01*
X176530000Y-90805000D02*
X176530000Y-93980000D01*
X129540000Y-73660000D02*
X129540000Y-90170000D01*
X127635000Y-91440000D02*
X127000000Y-91440000D01*
X128270000Y-90805000D02*
X127635000Y-91440000D01*
X128905000Y-90805000D02*
X128270000Y-90805000D01*
X129540000Y-90170000D02*
X128905000Y-90805000D01*
X126365000Y-91440000D02*
X125730000Y-92075000D01*
X127000000Y-91440000D02*
X126365000Y-91440000D01*
X125730000Y-92075000D02*
X125730000Y-95250000D01*
X130175000Y-66675000D02*
X142875000Y-66675000D01*
X129540000Y-67310000D02*
X130175000Y-66675000D01*
X129540000Y-73660000D02*
X129540000Y-71120000D01*
X142875000Y-66675000D02*
X147955000Y-66675000D01*
X147955000Y-66675000D02*
X149225000Y-67945000D01*
X165735000Y-66675000D02*
X164465000Y-67945000D01*
X164465000Y-67945000D02*
X149225000Y-67945000D01*
X130175000Y-90170000D02*
X130175000Y-90805000D01*
X129540000Y-91440000D02*
X128905000Y-91440000D01*
X130175000Y-90805000D02*
X129540000Y-91440000D01*
X130175000Y-74295000D02*
X130175000Y-90170000D01*
X128905000Y-91440000D02*
X128270000Y-92075000D01*
X128270000Y-92075000D02*
X128270000Y-95250000D01*
X130810000Y-69215000D02*
X142875000Y-69215000D01*
X130175000Y-69850000D02*
X130810000Y-69215000D01*
X130175000Y-74295000D02*
X130175000Y-71755000D01*
X147320000Y-69215000D02*
X147955000Y-69215000D01*
X147955000Y-69215000D02*
X149225000Y-70485000D01*
X142875000Y-69215000D02*
X147320000Y-69215000D01*
X165735000Y-69215000D02*
X164465000Y-70485000D01*
X164465000Y-70485000D02*
X149225000Y-70485000D01*
X130810000Y-74930000D02*
X130810000Y-95250000D01*
X130810000Y-92075000D02*
X130810000Y-95250000D01*
X130810000Y-92075000D02*
X130810000Y-95250000D01*
X130810000Y-74930000D02*
X130810000Y-71120000D01*
X131445000Y-64135000D02*
X142875000Y-64135000D01*
X130810000Y-64770000D02*
X131445000Y-64135000D01*
X142875000Y-64135000D02*
X147955000Y-64135000D01*
X147955000Y-64135000D02*
X149225000Y-65405000D01*
X165735000Y-64135000D02*
X164465000Y-65405000D01*
X164465000Y-65405000D02*
X149225000Y-65405000D01*
X131445000Y-90170000D02*
X131445000Y-90805000D01*
X132080000Y-91440000D02*
X132715000Y-91440000D01*
X131445000Y-90805000D02*
X132080000Y-91440000D01*
X131445000Y-74295000D02*
X131445000Y-90170000D01*
X132715000Y-91440000D02*
X133350000Y-92075000D01*
X133350000Y-92075000D02*
X133350000Y-95250000D01*
X132080000Y-61595000D02*
X142875000Y-61595000D01*
X131445000Y-62230000D02*
X132080000Y-61595000D01*
X131445000Y-74295000D02*
X131445000Y-71755000D01*
X142875000Y-61595000D02*
X147955000Y-61595000D01*
X147955000Y-61595000D02*
X149225000Y-62865000D01*
X165735000Y-61595000D02*
X164465000Y-62865000D01*
X164465000Y-62865000D02*
X149225000Y-62865000D01*
X133350000Y-90805000D02*
X133985000Y-91440000D01*
X135255000Y-91440000D02*
X135890000Y-92075000D01*
X133985000Y-91440000D02*
X135255000Y-91440000D01*
X135890000Y-92075000D02*
X135890000Y-95250000D01*
X132080000Y-89535000D02*
X132080000Y-90170000D01*
X132715000Y-90805000D02*
X133350000Y-90805000D01*
X132080000Y-90170000D02*
X132715000Y-90805000D01*
X132080000Y-73660000D02*
X132080000Y-89535000D01*
X132715000Y-59055000D02*
X142875000Y-59055000D01*
X132080000Y-59690000D02*
X132715000Y-59055000D01*
X132080000Y-73660000D02*
X132080000Y-71120000D01*
X147320000Y-59055000D02*
X147955000Y-59055000D01*
X147955000Y-59055000D02*
X149225000Y-60325000D01*
X142875000Y-59055000D02*
X147320000Y-59055000D01*
X165735000Y-59055000D02*
X164465000Y-60325000D01*
X164465000Y-60325000D02*
X149225000Y-60325000D01*
X136525000Y-91440000D02*
X137160000Y-91440000D01*
X132715000Y-73025000D02*
X132715000Y-71755000D01*
X132715000Y-57150000D02*
X132715000Y-57150000D01*
X132715000Y-57150000D02*
X133350000Y-56515000D01*
X142875000Y-56515000D02*
X133350000Y-56515000D01*
X132715000Y-73025000D02*
X132715000Y-88900000D01*
X132715000Y-89535000D02*
X133350000Y-90170000D01*
X133350000Y-90170000D02*
X133985000Y-90170000D01*
X132715000Y-88900000D02*
X132715000Y-89535000D01*
X134620000Y-90805000D02*
X135890000Y-90805000D01*
X135890000Y-90805000D02*
X136525000Y-91440000D01*
X133985000Y-90170000D02*
X134620000Y-90805000D01*
X137160000Y-91440000D02*
X138430000Y-92710000D01*
X138430000Y-92710000D02*
X138430000Y-95250000D01*
X147320000Y-56515000D02*
X147955000Y-56515000D01*
X147955000Y-56515000D02*
X149225000Y-57785000D01*
X142875000Y-56515000D02*
X147320000Y-56515000D01*
X165735000Y-56515000D02*
X164465000Y-57785000D01*
X164465000Y-57785000D02*
X149225000Y-57785000D01*
X139700000Y-91440000D02*
X140335000Y-91440000D01*
X133350000Y-72390000D02*
X133350000Y-71120000D01*
X133350000Y-54610000D02*
X133985000Y-53975000D01*
X142875000Y-53975000D02*
X133985000Y-53975000D01*
X133350000Y-88900000D02*
X133985000Y-89535000D01*
X133985000Y-89535000D02*
X134620000Y-89535000D01*
X134620000Y-89535000D02*
X135255000Y-90170000D01*
X135255000Y-90170000D02*
X136525000Y-90170000D01*
X136525000Y-90170000D02*
X137160000Y-90805000D01*
X137160000Y-90805000D02*
X137795000Y-90805000D01*
X137795000Y-90805000D02*
X138430000Y-91440000D01*
X138430000Y-91440000D02*
X139700000Y-91440000D01*
X133350000Y-72390000D02*
X133350000Y-88900000D01*
X140335000Y-91440000D02*
X140970000Y-92075000D01*
X140970000Y-92075000D02*
X140970000Y-95250000D01*
X142875000Y-53975000D02*
X147955000Y-53975000D01*
X147955000Y-53975000D02*
X149225000Y-55245000D01*
X165735000Y-53975000D02*
X164465000Y-55245000D01*
X164465000Y-55245000D02*
X149225000Y-55245000D01*
X140970000Y-90805000D02*
X141605000Y-91440000D01*
X142875000Y-91440000D02*
X143510000Y-92075000D01*
X141605000Y-91440000D02*
X142875000Y-91440000D01*
X143510000Y-92075000D02*
X143510000Y-95250000D01*
X134620000Y-51435000D02*
X142875000Y-51435000D01*
X133985000Y-52070000D02*
X134620000Y-51435000D01*
X133985000Y-88265000D02*
X133985000Y-71755000D01*
X134620000Y-88900000D02*
X133985000Y-88265000D01*
X135255000Y-88900000D02*
X134620000Y-88900000D01*
X135890000Y-89535000D02*
X135255000Y-88900000D01*
X137160000Y-89535000D02*
X135890000Y-89535000D01*
X137795000Y-90170000D02*
X137160000Y-89535000D01*
X138430000Y-90170000D02*
X137795000Y-90170000D01*
X139065000Y-90805000D02*
X138430000Y-90170000D01*
X140970000Y-90805000D02*
X139065000Y-90805000D01*
X142875000Y-51435000D02*
X147955000Y-51435000D01*
X147955000Y-51435000D02*
X149225000Y-52705000D01*
X165735000Y-51435000D02*
X164465000Y-52705000D01*
X164465000Y-52705000D02*
X149225000Y-52705000D01*
X146050000Y-95250000D02*
X146050000Y-92075000D01*
X146050000Y-92075000D02*
X145415000Y-91440000D01*
X142240000Y-90805000D02*
X141605000Y-90170000D01*
X143510000Y-90805000D02*
X142240000Y-90805000D01*
X144145000Y-91440000D02*
X143510000Y-90805000D01*
X145415000Y-91440000D02*
X144145000Y-91440000D01*
X135255000Y-48895000D02*
X142875000Y-48895000D01*
X141605000Y-90170000D02*
X139700000Y-90170000D01*
X139700000Y-90170000D02*
X139065000Y-89535000D01*
X139065000Y-89535000D02*
X138430000Y-89535000D01*
X138430000Y-89535000D02*
X137795000Y-88900000D01*
X137795000Y-88900000D02*
X136525000Y-88900000D01*
X136525000Y-88900000D02*
X135890000Y-88265000D01*
X135890000Y-88265000D02*
X135255000Y-88265000D01*
X135255000Y-88265000D02*
X134620000Y-87630000D01*
X134620000Y-87630000D02*
X134620000Y-71120000D01*
X134620000Y-49530000D02*
X135255000Y-48895000D01*
X142875000Y-48895000D02*
X147955000Y-48895000D01*
X147955000Y-48895000D02*
X149225000Y-50165000D01*
X165735000Y-48895000D02*
X164465000Y-50165000D01*
X164465000Y-50165000D02*
X149225000Y-50165000D01*
X160020000Y-47625000D02*
X161925000Y-47625000D01*
X161925000Y-47625000D02*
X163195000Y-46355000D01*
X148590000Y-95250000D02*
X148590000Y-92075000D01*
X148590000Y-92075000D02*
X147955000Y-91440000D01*
X147955000Y-91440000D02*
X146685000Y-91440000D01*
X146685000Y-91440000D02*
X146050000Y-90805000D01*
X146050000Y-90805000D02*
X144780000Y-90805000D01*
X144780000Y-90805000D02*
X144145000Y-90170000D01*
X144145000Y-90170000D02*
X142875000Y-90170000D01*
X142875000Y-90170000D02*
X142240000Y-89535000D01*
X135890000Y-46355000D02*
X142875000Y-46355000D01*
X135255000Y-46990000D02*
X135890000Y-46355000D01*
X135255000Y-86995000D02*
X135255000Y-71755000D01*
X135890000Y-87630000D02*
X135255000Y-86995000D01*
X136525000Y-87630000D02*
X135890000Y-87630000D01*
X137160000Y-88265000D02*
X136525000Y-87630000D01*
X138430000Y-88265000D02*
X137160000Y-88265000D01*
X139065000Y-88900000D02*
X138430000Y-88265000D01*
X139700000Y-88900000D02*
X139065000Y-88900000D01*
X140335000Y-89535000D02*
X139700000Y-88900000D01*
X142240000Y-89535000D02*
X140335000Y-89535000D01*
X165735000Y-46355000D02*
X163195000Y-46355000D01*
X142875000Y-46355000D02*
X147955000Y-46355000D01*
X147955000Y-46355000D02*
X149225000Y-47625000D01*
X160020000Y-47625000D02*
X149225000Y-47625000D01*
X151130000Y-95250000D02*
X151130000Y-92075000D01*
X151130000Y-92075000D02*
X150495000Y-91440000D01*
X142875000Y-88900000D02*
X143510000Y-89535000D01*
X149225000Y-91440000D02*
X150495000Y-91440000D01*
X148590000Y-90805000D02*
X149225000Y-91440000D01*
X147320000Y-90805000D02*
X148590000Y-90805000D01*
X146685000Y-90170000D02*
X147320000Y-90805000D01*
X145415000Y-90170000D02*
X146685000Y-90170000D01*
X144780000Y-89535000D02*
X145415000Y-90170000D01*
X143510000Y-89535000D02*
X144780000Y-89535000D01*
X137160000Y-86995000D02*
X137795000Y-87630000D01*
X140970000Y-88900000D02*
X142875000Y-88900000D01*
X140335000Y-88265000D02*
X140970000Y-88900000D01*
X139700000Y-88265000D02*
X140335000Y-88265000D01*
X139065000Y-87630000D02*
X139700000Y-88265000D01*
X137795000Y-87630000D02*
X139065000Y-87630000D01*
X136525000Y-43815000D02*
X142875000Y-43815000D01*
X137160000Y-86995000D02*
X136525000Y-86995000D01*
X136525000Y-86995000D02*
X135890000Y-86360000D01*
X135890000Y-86360000D02*
X135890000Y-71120000D01*
X135890000Y-44450000D02*
X136525000Y-43815000D01*
X142875000Y-43815000D02*
X144780000Y-43815000D01*
X144780000Y-43815000D02*
X146050000Y-45085000D01*
X165735000Y-43815000D02*
X164465000Y-45085000D01*
X164465000Y-45085000D02*
X146050000Y-45085000D01*
X137795000Y-86360000D02*
X137160000Y-86360000D01*
X138430000Y-86995000D02*
X137795000Y-86360000D01*
X139700000Y-86995000D02*
X138430000Y-86995000D01*
X140335000Y-87630000D02*
X139700000Y-86995000D01*
X140970000Y-87630000D02*
X140335000Y-87630000D01*
X141605000Y-88265000D02*
X140970000Y-87630000D01*
X143510000Y-88265000D02*
X141605000Y-88265000D01*
X144145000Y-88900000D02*
X143510000Y-88265000D01*
X145415000Y-88900000D02*
X144145000Y-88900000D01*
X146050000Y-89535000D02*
X145415000Y-88900000D01*
X147320000Y-89535000D02*
X146050000Y-89535000D01*
X147955000Y-90170000D02*
X147320000Y-89535000D01*
X149225000Y-90170000D02*
X147955000Y-90170000D01*
X149860000Y-90805000D02*
X149225000Y-90170000D01*
X151130000Y-90805000D02*
X149860000Y-90805000D01*
X151765000Y-91440000D02*
X151130000Y-90805000D01*
X155575000Y-91440000D02*
X151765000Y-91440000D01*
X156210000Y-92075000D02*
X155575000Y-91440000D01*
X137160000Y-86360000D02*
X136525000Y-85725000D01*
X156210000Y-95250000D02*
X156210000Y-92075000D01*
X136525000Y-68580000D02*
X136525000Y-67945000D01*
X136525000Y-85725000D02*
X136525000Y-71755000D01*
X141605000Y-67945000D02*
X147955000Y-67945000D01*
X128905000Y-67945000D02*
X136525000Y-67945000D01*
X127635000Y-69215000D02*
X128905000Y-67945000D01*
X136525000Y-67945000D02*
X137160000Y-67945000D01*
X137160000Y-67945000D02*
X141605000Y-67945000D01*
X149225000Y-69215000D02*
X150495000Y-69215000D01*
X147955000Y-67945000D02*
X149225000Y-69215000D01*
X137795000Y-84455000D02*
X137795000Y-71755000D01*
X138430000Y-85090000D02*
X137795000Y-84455000D01*
X139065000Y-85090000D02*
X138430000Y-85090000D01*
X139700000Y-85725000D02*
X139065000Y-85090000D01*
X140970000Y-85725000D02*
X139700000Y-85725000D01*
X141605000Y-86360000D02*
X140970000Y-85725000D01*
X142240000Y-86360000D02*
X141605000Y-86360000D01*
X142875000Y-86995000D02*
X142240000Y-86360000D01*
X144780000Y-86995000D02*
X142875000Y-86995000D01*
X145415000Y-87630000D02*
X144780000Y-86995000D01*
X146685000Y-87630000D02*
X145415000Y-87630000D01*
X147320000Y-88265000D02*
X146685000Y-87630000D01*
X148590000Y-88265000D02*
X147320000Y-88265000D01*
X149225000Y-88900000D02*
X148590000Y-88265000D01*
X150495000Y-88900000D02*
X149225000Y-88900000D01*
X151130000Y-89535000D02*
X150495000Y-88900000D01*
X152400000Y-89535000D02*
X151130000Y-89535000D01*
X153035000Y-90170000D02*
X152400000Y-89535000D01*
X156845000Y-90170000D02*
X153035000Y-90170000D01*
X157480000Y-90805000D02*
X156845000Y-90170000D01*
X158750000Y-90805000D02*
X157480000Y-90805000D01*
X159385000Y-91440000D02*
X158750000Y-90805000D01*
X160655000Y-91440000D02*
X159385000Y-91440000D01*
X161290000Y-92075000D02*
X160655000Y-91440000D01*
X137795000Y-63500000D02*
X137795000Y-62865000D01*
X161290000Y-95250000D02*
X161290000Y-92075000D01*
X141605000Y-62865000D02*
X147955000Y-62865000D01*
X147955000Y-62865000D02*
X149225000Y-64135000D01*
X149225000Y-64135000D02*
X150495000Y-64135000D01*
X137795000Y-62865000D02*
X141605000Y-62865000D01*
X128905000Y-62865000D02*
X137795000Y-62865000D01*
X127635000Y-64135000D02*
X128905000Y-62865000D01*
X158750000Y-95250000D02*
X158750000Y-92075000D01*
X158750000Y-92075000D02*
X158115000Y-91440000D01*
X158115000Y-91440000D02*
X156845000Y-91440000D01*
X156845000Y-91440000D02*
X156210000Y-90805000D01*
X137795000Y-85725000D02*
X138430000Y-85725000D01*
X137795000Y-85725000D02*
X137160000Y-85090000D01*
X137160000Y-85090000D02*
X137160000Y-71120000D01*
X137160000Y-65405000D02*
X137160000Y-66040000D01*
X152400000Y-90805000D02*
X156210000Y-90805000D01*
X151765000Y-90170000D02*
X152400000Y-90805000D01*
X150495000Y-90170000D02*
X151765000Y-90170000D01*
X149860000Y-89535000D02*
X150495000Y-90170000D01*
X148590000Y-89535000D02*
X149860000Y-89535000D01*
X147955000Y-88900000D02*
X148590000Y-89535000D01*
X146685000Y-88900000D02*
X147955000Y-88900000D01*
X146050000Y-88265000D02*
X146685000Y-88900000D01*
X144780000Y-88265000D02*
X146050000Y-88265000D01*
X144145000Y-87630000D02*
X144780000Y-88265000D01*
X142240000Y-87630000D02*
X144145000Y-87630000D01*
X141605000Y-86995000D02*
X142240000Y-87630000D01*
X140970000Y-86995000D02*
X141605000Y-86995000D01*
X140335000Y-86360000D02*
X140970000Y-86995000D01*
X139065000Y-86360000D02*
X140335000Y-86360000D01*
X138430000Y-85725000D02*
X139065000Y-86360000D01*
X141605000Y-65405000D02*
X147955000Y-65405000D01*
X128905000Y-65405000D02*
X137160000Y-65405000D01*
X127635000Y-66675000D02*
X128905000Y-65405000D01*
X137160000Y-65405000D02*
X137795000Y-65405000D01*
X137795000Y-65405000D02*
X141605000Y-65405000D01*
X149225000Y-66675000D02*
X150495000Y-66675000D01*
X147955000Y-65405000D02*
X149225000Y-66675000D01*
X163830000Y-95250000D02*
X163830000Y-92075000D01*
X163830000Y-92075000D02*
X163195000Y-91440000D01*
X163195000Y-91440000D02*
X161925000Y-91440000D01*
X161925000Y-91440000D02*
X161290000Y-90805000D01*
X161290000Y-90805000D02*
X160020000Y-90805000D01*
X160020000Y-90805000D02*
X159385000Y-90170000D01*
X159385000Y-90170000D02*
X158115000Y-90170000D01*
X158115000Y-90170000D02*
X157480000Y-89535000D01*
X157480000Y-89535000D02*
X153670000Y-89535000D01*
X153670000Y-89535000D02*
X153035000Y-88900000D01*
X153035000Y-88900000D02*
X151765000Y-88900000D01*
X151765000Y-88900000D02*
X151130000Y-88265000D01*
X151130000Y-88265000D02*
X149860000Y-88265000D01*
X149860000Y-88265000D02*
X149225000Y-87630000D01*
X149225000Y-87630000D02*
X147955000Y-87630000D01*
X147955000Y-87630000D02*
X147320000Y-86995000D01*
X147320000Y-86995000D02*
X146050000Y-86995000D01*
X146050000Y-86995000D02*
X145415000Y-86360000D01*
X145415000Y-86360000D02*
X143510000Y-86360000D01*
X143510000Y-86360000D02*
X142875000Y-85725000D01*
X142875000Y-85725000D02*
X142240000Y-85725000D01*
X142240000Y-85725000D02*
X141605000Y-85090000D01*
X141605000Y-85090000D02*
X140335000Y-85090000D01*
X140335000Y-85090000D02*
X139700000Y-84455000D01*
X139700000Y-84455000D02*
X139065000Y-84455000D01*
X139065000Y-84455000D02*
X138430000Y-83820000D01*
X138430000Y-83820000D02*
X138430000Y-71120000D01*
X138430000Y-60960000D02*
X138430000Y-60325000D01*
X142240000Y-60325000D02*
X147955000Y-60325000D01*
X128905000Y-60325000D02*
X138430000Y-60325000D01*
X138430000Y-60325000D02*
X142240000Y-60325000D01*
X127635000Y-61595000D02*
X128905000Y-60325000D01*
X149225000Y-61595000D02*
X150495000Y-61595000D01*
X147955000Y-60325000D02*
X149225000Y-61595000D01*
X166370000Y-95250000D02*
X166370000Y-92075000D01*
X166370000Y-92075000D02*
X165735000Y-91440000D01*
X165735000Y-91440000D02*
X164465000Y-91440000D01*
X164465000Y-91440000D02*
X163830000Y-90805000D01*
X163830000Y-90805000D02*
X162560000Y-90805000D01*
X162560000Y-90805000D02*
X161925000Y-90170000D01*
X161925000Y-90170000D02*
X160655000Y-90170000D01*
X160655000Y-90170000D02*
X160020000Y-89535000D01*
X160020000Y-89535000D02*
X158750000Y-89535000D01*
X158750000Y-89535000D02*
X158115000Y-88900000D01*
X158115000Y-88900000D02*
X154305000Y-88900000D01*
X154305000Y-88900000D02*
X153670000Y-88265000D01*
X153670000Y-88265000D02*
X152400000Y-88265000D01*
X152400000Y-88265000D02*
X151765000Y-87630000D01*
X151765000Y-87630000D02*
X150495000Y-87630000D01*
X150495000Y-87630000D02*
X149860000Y-86995000D01*
X149860000Y-86995000D02*
X148590000Y-86995000D01*
X148590000Y-86995000D02*
X147955000Y-86360000D01*
X147955000Y-86360000D02*
X146685000Y-86360000D01*
X146685000Y-86360000D02*
X146050000Y-85725000D01*
X146050000Y-85725000D02*
X144145000Y-85725000D01*
X144145000Y-85725000D02*
X143510000Y-85090000D01*
X143510000Y-85090000D02*
X142875000Y-85090000D01*
X142875000Y-85090000D02*
X142240000Y-84455000D01*
X142240000Y-84455000D02*
X140970000Y-84455000D01*
X140970000Y-84455000D02*
X140335000Y-83820000D01*
X140335000Y-83820000D02*
X139515002Y-83820000D01*
X139515002Y-83820000D02*
X139065000Y-83369998D01*
X139065000Y-83369998D02*
X139065000Y-71755000D01*
X139065000Y-48260000D02*
X139065000Y-47625000D01*
X150495000Y-48895000D02*
X149225000Y-48895000D01*
X128905000Y-47625000D02*
X127635000Y-48895000D01*
X147955000Y-47625000D02*
X139065000Y-47625000D01*
X139065000Y-47625000D02*
X128905000Y-47625000D01*
X149225000Y-48895000D02*
X147955000Y-47625000D01*
X168910000Y-95250000D02*
X168910000Y-92075000D01*
X168910000Y-92075000D02*
X168275000Y-91440000D01*
X168275000Y-91440000D02*
X167005000Y-91440000D01*
X167005000Y-91440000D02*
X166370000Y-90805000D01*
X166370000Y-90805000D02*
X165100000Y-90805000D01*
X165100000Y-90805000D02*
X164465000Y-90170000D01*
X164465000Y-90170000D02*
X163195000Y-90170000D01*
X163195000Y-90170000D02*
X162560000Y-89535000D01*
X162560000Y-89535000D02*
X161290000Y-89535000D01*
X161290000Y-89535000D02*
X160655000Y-88900000D01*
X160655000Y-88900000D02*
X159385000Y-88900000D01*
X159385000Y-88900000D02*
X158750000Y-88265000D01*
X158750000Y-88265000D02*
X154940000Y-88265000D01*
X154940000Y-88265000D02*
X154305000Y-87630000D01*
X154305000Y-87630000D02*
X153035000Y-87630000D01*
X153035000Y-87630000D02*
X152400000Y-86995000D01*
X152400000Y-86995000D02*
X151130000Y-86995000D01*
X151130000Y-86995000D02*
X150495000Y-86360000D01*
X150495000Y-86360000D02*
X149225000Y-86360000D01*
X149225000Y-86360000D02*
X148590000Y-85725000D01*
X148590000Y-85725000D02*
X147320000Y-85725000D01*
X147320000Y-85725000D02*
X146685000Y-85090000D01*
X146685000Y-85090000D02*
X144780000Y-85090000D01*
X144780000Y-85090000D02*
X144145000Y-84455000D01*
X144145000Y-84455000D02*
X143510000Y-84455000D01*
X143510000Y-84455000D02*
X142875000Y-83820000D01*
X142875000Y-83820000D02*
X141605000Y-83820000D01*
X141605000Y-83820000D02*
X140970000Y-83185000D01*
X140970000Y-83185000D02*
X140335000Y-83185000D01*
X140335000Y-83185000D02*
X139700000Y-82550000D01*
X139700000Y-82550000D02*
X139700000Y-71120000D01*
X139700000Y-50800000D02*
X139700000Y-50165000D01*
X141605000Y-50165000D02*
X147955000Y-50165000D01*
X128905000Y-50165000D02*
X139700000Y-50165000D01*
X139700000Y-50165000D02*
X141605000Y-50165000D01*
X127635000Y-51435000D02*
X128905000Y-50165000D01*
X149225000Y-51435000D02*
X150495000Y-51435000D01*
X147955000Y-50165000D02*
X149225000Y-51435000D01*
X145415000Y-84455000D02*
X144780000Y-83820000D01*
X154940000Y-86995000D02*
X153670000Y-86995000D01*
X153670000Y-86995000D02*
X153035000Y-86360000D01*
X153035000Y-86360000D02*
X151765000Y-86360000D01*
X151765000Y-86360000D02*
X151130000Y-85725000D01*
X151130000Y-85725000D02*
X149860000Y-85725000D01*
X149860000Y-85725000D02*
X149225000Y-85090000D01*
X149225000Y-85090000D02*
X147955000Y-85090000D01*
X147955000Y-85090000D02*
X147320000Y-84455000D01*
X147320000Y-84455000D02*
X145415000Y-84455000D01*
X167640000Y-90805000D02*
X167005000Y-90170000D01*
X168910000Y-90805000D02*
X167640000Y-90805000D01*
X169545000Y-91440000D02*
X168910000Y-90805000D01*
X170815000Y-91440000D02*
X169545000Y-91440000D01*
X171450000Y-92075000D02*
X170815000Y-91440000D01*
X159385000Y-87630000D02*
X155575000Y-87630000D01*
X160020000Y-88265000D02*
X159385000Y-87630000D01*
X161290000Y-88265000D02*
X160020000Y-88265000D01*
X161925000Y-88900000D02*
X161290000Y-88265000D01*
X163195000Y-88900000D02*
X161925000Y-88900000D01*
X163830000Y-89535000D02*
X163195000Y-88900000D01*
X165100000Y-89535000D02*
X163830000Y-89535000D01*
X165735000Y-90170000D02*
X165100000Y-89535000D01*
X167005000Y-90170000D02*
X165735000Y-90170000D01*
X155575000Y-87630000D02*
X154940000Y-86995000D01*
X140335000Y-81915000D02*
X140335000Y-70485000D01*
X140970000Y-82550000D02*
X140335000Y-81915000D01*
X141605000Y-82550000D02*
X140970000Y-82550000D01*
X142240000Y-83185000D02*
X141605000Y-82550000D01*
X143510000Y-83185000D02*
X142240000Y-83185000D01*
X144145000Y-83820000D02*
X143510000Y-83185000D01*
X144780000Y-83820000D02*
X144145000Y-83820000D01*
X171450000Y-95250000D02*
X171450000Y-92075000D01*
X147320000Y-70485000D02*
X147955000Y-70485000D01*
X147955000Y-70485000D02*
X149225000Y-71755000D01*
X149225000Y-71755000D02*
X150495000Y-71755000D01*
X140335000Y-70485000D02*
X147320000Y-70485000D01*
X128905000Y-70485000D02*
X140335000Y-70485000D01*
X127635000Y-71755000D02*
X128905000Y-70485000D01*
X150495000Y-71755000D02*
X150495000Y-72390000D01*
X151765000Y-83185000D02*
X151130000Y-82550000D01*
X142875000Y-82550000D02*
X142240000Y-81915000D01*
X151130000Y-82550000D02*
X142875000Y-82550000D01*
X142240000Y-81915000D02*
X141605000Y-81915000D01*
X141605000Y-81915000D02*
X140970000Y-81280000D01*
X140970000Y-81280000D02*
X140970000Y-71120000D01*
X140970000Y-55880000D02*
X140970000Y-55245000D01*
X155575000Y-86360000D02*
X154305000Y-86360000D01*
X154305000Y-86360000D02*
X153670000Y-85725000D01*
X153670000Y-85725000D02*
X152400000Y-85725000D01*
X152400000Y-85725000D02*
X151765000Y-85090000D01*
X151765000Y-85090000D02*
X151765000Y-83185000D01*
X168275000Y-90170000D02*
X167640000Y-89535000D01*
X169545000Y-90170000D02*
X168275000Y-90170000D01*
X170180000Y-90805000D02*
X169545000Y-90170000D01*
X171450000Y-90805000D02*
X170180000Y-90805000D01*
X172085000Y-91440000D02*
X171450000Y-90805000D01*
X173355000Y-91440000D02*
X172085000Y-91440000D01*
X173990000Y-92075000D02*
X173355000Y-91440000D01*
X160020000Y-86995000D02*
X156210000Y-86995000D01*
X160655000Y-87630000D02*
X160020000Y-86995000D01*
X161925000Y-87630000D02*
X160655000Y-87630000D01*
X162560000Y-88265000D02*
X161925000Y-87630000D01*
X163830000Y-88265000D02*
X162560000Y-88265000D01*
X164465000Y-88900000D02*
X163830000Y-88265000D01*
X165735000Y-88900000D02*
X164465000Y-88900000D01*
X166370000Y-89535000D02*
X165735000Y-88900000D01*
X167640000Y-89535000D02*
X166370000Y-89535000D01*
X156210000Y-86995000D02*
X155575000Y-86360000D01*
X173990000Y-95250000D02*
X173990000Y-92075000D01*
X141605000Y-55245000D02*
X147955000Y-55245000D01*
X147955000Y-55245000D02*
X149225000Y-56515000D01*
X149225000Y-56515000D02*
X150495000Y-56515000D01*
X140970000Y-55245000D02*
X141605000Y-55245000D01*
X128905000Y-55245000D02*
X140970000Y-55245000D01*
X127635000Y-56515000D02*
X128905000Y-55245000D01*
X150495000Y-41275000D02*
X163830000Y-41275000D01*
X163830000Y-41275000D02*
X165100000Y-40005000D01*
X172085000Y-41275000D02*
X170815000Y-42545000D01*
X166370000Y-40005000D02*
X165100000Y-40005000D01*
X167005000Y-40640000D02*
X166370000Y-40005000D01*
X167005000Y-41910000D02*
X167005000Y-40640000D01*
X167640000Y-42545000D02*
X167005000Y-41910000D01*
X170815000Y-42545000D02*
X167640000Y-42545000D01*
X165735000Y-38735000D02*
X167005000Y-38735000D01*
X168275000Y-41275000D02*
X169545000Y-41275000D01*
X167640000Y-40640000D02*
X168275000Y-41275000D01*
X167640000Y-39370000D02*
X167640000Y-40640000D01*
X167005000Y-38735000D02*
X167640000Y-39370000D01*
X170815000Y-47625000D02*
X165735000Y-47625000D01*
X172085000Y-48895000D02*
X170815000Y-47625000D01*
X144145000Y-40005000D02*
X144780000Y-40640000D01*
X144780000Y-40640000D02*
X148590000Y-40640000D01*
X152400000Y-39370000D02*
X162560000Y-39370000D01*
X140335000Y-41275000D02*
X127635000Y-41275000D01*
X141605000Y-40005000D02*
X142875000Y-40005000D01*
X140335000Y-41275000D02*
X141605000Y-40005000D01*
X142875000Y-40005000D02*
X144145000Y-40005000D01*
X164465000Y-47625000D02*
X165735000Y-47625000D01*
X163830000Y-46990000D02*
X164465000Y-47625000D01*
X142875000Y-38735000D02*
X144780000Y-38735000D01*
X144780000Y-38735000D02*
X146050000Y-40005000D01*
X163830000Y-40005000D02*
X163195000Y-40005000D01*
X146050000Y-40005000D02*
X163195000Y-40005000D01*
X151130000Y-73025000D02*
X151765000Y-73025000D01*
X152400000Y-71120000D02*
X152400000Y-72390000D01*
X150495000Y-74930000D02*
X150495000Y-76200000D01*
X151130000Y-73025000D02*
X150495000Y-73660000D01*
X150495000Y-73660000D02*
X150495000Y-74930000D01*
X152400000Y-72390000D02*
X151765000Y-73025000D01*
X157480000Y-53975000D02*
X156845000Y-53975000D01*
X158115000Y-54610000D02*
X157480000Y-53975000D01*
X158115000Y-76200000D02*
X158115000Y-71120000D01*
X156845000Y-53975000D02*
X150495000Y-53975000D01*
X142875000Y-52705000D02*
X147955000Y-52705000D01*
X128905000Y-52705000D02*
X142875000Y-52705000D01*
X127635000Y-53975000D02*
X128905000Y-52705000D01*
X149225000Y-53975000D02*
X150495000Y-53975000D01*
X147955000Y-52705000D02*
X149225000Y-53975000D01*
X153035000Y-76200000D02*
X153035000Y-76835000D01*
X153035000Y-76835000D02*
X152400000Y-77470000D01*
X152400000Y-77470000D02*
X151765000Y-77470000D01*
X148590000Y-73660000D02*
X148590000Y-76835000D01*
X149225000Y-77470000D02*
X151765000Y-77470000D01*
X148590000Y-76835000D02*
X149225000Y-77470000D01*
X146050000Y-57785000D02*
X147955000Y-57785000D01*
X128905000Y-57785000D02*
X146050000Y-57785000D01*
X127635000Y-59055000D02*
X128905000Y-57785000D01*
X148590000Y-72390000D02*
X148590000Y-73660000D01*
X147955000Y-57785000D02*
X148590000Y-58420000D01*
X153035000Y-75565000D02*
X153035000Y-76200000D01*
X157480000Y-79375000D02*
X157480000Y-80010000D01*
X160655000Y-83820000D02*
X160655000Y-81915000D01*
X158750000Y-81280000D02*
X157480000Y-80010000D01*
X160020000Y-81280000D02*
X158750000Y-81280000D01*
X160655000Y-81915000D02*
X160020000Y-81280000D01*
X153035000Y-76200000D02*
X155575000Y-76200000D01*
M02*
